<mxfile host="65bd71144e" modified="2021-01-26T07:21:54.699Z" agent="5.0 (Windows NT 10.0; Win64; x64) AppleWebKit/537.36 (KHTML, like Gecko) Code/1.52.1 Chrome/83.0.4103.122 Electron/9.3.5 Safari/537.36" version="13.10.0" etag="3ZhTS6cqi8WgRAEdXBrV" type="embed">
    <diagram id="3W-OKm5JTrAFcGnVHyQs" name="Page-1">
        <mxGraphModel dx="1670" dy="574" grid="1" gridSize="10" guides="1" tooltips="1" connect="1" arrows="1" fold="1" page="1" pageScale="1" pageWidth="850" pageHeight="1100" math="0" shadow="0">
            <root>
                <mxCell id="0"/>
                <mxCell id="1" parent="0"/>
                <mxCell id="6" value="" style="rounded=0;whiteSpace=wrap;html=1;fontSize=19;noLabel=1;fontColor=none;strokeColor=none;fillColor=#EFEFEF;" vertex="1" parent="1">
                    <mxGeometry x="-30" y="10" width="1730" height="530" as="geometry"/>
                </mxCell>
                <mxCell id="2" value="&amp;nbsp;framework resource&lt;br&gt;&lt;br style=&quot;font-size: 19px&quot;&gt;framework UI component" style="rounded=0;whiteSpace=wrap;html=1;fillColor=#347BD4;fontSize=19;strokeColor=none;" vertex="1" parent="1">
                    <mxGeometry x="50" y="190" width="190" height="170" as="geometry"/>
                </mxCell>
                <mxCell id="3" value="Android framework&lt;br&gt;OEM overlay resource" style="rounded=0;whiteSpace=wrap;html=1;fillColor=#347BD4;fontSize=19;strokeColor=none;" vertex="1" parent="1">
                    <mxGeometry x="350" y="55" width="190" height="110" as="geometry"/>
                </mxCell>
                <mxCell id="4" value="Car UI library&amp;nbsp;" style="rounded=0;whiteSpace=wrap;html=1;fillColor=#347BD4;fontSize=19;" vertex="1" parent="1">
                    <mxGeometry x="350" y="330" width="190" height="170" as="geometry"/>
                </mxCell>
                <mxCell id="5" value="" style="endArrow=none;dashed=1;html=1;dashPattern=1 3;strokeWidth=2;fontSize=19;fontColor=#000000;strokeColor=#000000;" edge="1" parent="1">
                    <mxGeometry width="50" height="50" relative="1" as="geometry">
                        <mxPoint x="320" y="530" as="sourcePoint"/>
                        <mxPoint x="320" y="30" as="targetPoint"/>
                    </mxGeometry>
                </mxCell>
                <mxCell id="7" value="" style="endArrow=none;dashed=1;html=1;dashPattern=1 3;strokeWidth=2;fontSize=19;fontColor=#000000;strokeColor=#000000;" edge="1" parent="1">
                    <mxGeometry width="50" height="50" relative="1" as="geometry">
                        <mxPoint x="1100" y="525" as="sourcePoint"/>
                        <mxPoint x="1100" y="25" as="targetPoint"/>
                    </mxGeometry>
                </mxCell>
                <mxCell id="9" value="App A" style="rounded=0;whiteSpace=wrap;html=1;fontSize=19;fontColor=#000000;fillColor=#F1C232;strokeColor=none;verticalAlign=top;align=left;" vertex="1" parent="1">
                    <mxGeometry x="580" y="310" width="190" height="140" as="geometry"/>
                </mxCell>
                <mxCell id="10" value="Overlay App A" style="rounded=0;whiteSpace=wrap;html=1;fontSize=19;fontColor=#000000;fillColor=#F1C232;strokeColor=none;verticalAlign=top;" vertex="1" parent="1">
                    <mxGeometry x="580" y="100" width="190" height="155" as="geometry"/>
                </mxCell>
                <mxCell id="36" style="edgeStyle=orthogonalEdgeStyle;rounded=0;orthogonalLoop=1;jettySize=auto;html=1;exitX=0.5;exitY=0;exitDx=0;exitDy=0;entryX=0.5;entryY=1;entryDx=0;entryDy=0;strokeColor=#000000;fontSize=16;fontColor=#000000;" edge="1" parent="1" source="11" target="12">
                    <mxGeometry relative="1" as="geometry">
                        <Array as="points">
                            <mxPoint x="673" y="360"/>
                            <mxPoint x="673" y="295"/>
                        </Array>
                    </mxGeometry>
                </mxCell>
                <mxCell id="11" value="Car UI library" style="rounded=0;whiteSpace=wrap;html=1;fontSize=19;fillColor=#347BD4;fontColor=#FFFFFF;strokeColor=none;" vertex="1" parent="1">
                    <mxGeometry x="607.5" y="360" width="135" height="60" as="geometry"/>
                </mxCell>
                <mxCell id="28" style="edgeStyle=orthogonalEdgeStyle;rounded=0;orthogonalLoop=1;jettySize=auto;html=1;exitX=0;exitY=0.5;exitDx=0;exitDy=0;entryX=1;entryY=0.5;entryDx=0;entryDy=0;strokeColor=#000000;fontSize=16;fontColor=#000000;" edge="1" parent="1" source="12" target="3">
                    <mxGeometry relative="1" as="geometry"/>
                </mxCell>
                <mxCell id="30" style="edgeStyle=orthogonalEdgeStyle;rounded=0;orthogonalLoop=1;jettySize=auto;html=1;exitX=0;exitY=0.5;exitDx=0;exitDy=0;entryX=1;entryY=0.5;entryDx=0;entryDy=0;strokeColor=#000000;fontSize=16;fontColor=#000000;" edge="1" parent="1" source="12" target="29">
                    <mxGeometry relative="1" as="geometry"/>
                </mxCell>
                <mxCell id="12" value="resource overlay&lt;br&gt;App A" style="rounded=0;whiteSpace=wrap;html=1;fillColor=#347BD4;fontSize=19;fontColor=#FFFFFF;strokeColor=none;" vertex="1" parent="1">
                    <mxGeometry x="607.5" y="140" width="130" height="90" as="geometry"/>
                </mxCell>
                <mxCell id="13" value="IF we customize aaos system&amp;nbsp;" style="text;html=1;strokeColor=none;fillColor=none;align=center;verticalAlign=middle;whiteSpace=wrap;rounded=0;fontSize=16;fontColor=#000000;" vertex="1" parent="1">
                    <mxGeometry x="5" y="35" width="280" height="20" as="geometry"/>
                </mxCell>
                <mxCell id="14" value="IF we are oem app&amp;nbsp;" style="text;html=1;strokeColor=none;fillColor=none;align=center;verticalAlign=middle;whiteSpace=wrap;rounded=0;fontSize=16;fontColor=#000000;" vertex="1" parent="1">
                    <mxGeometry x="580" y="35" width="280" height="20" as="geometry"/>
                </mxCell>
                <mxCell id="15" value="IF we are thirdpart app&amp;nbsp;" style="text;html=1;strokeColor=none;fillColor=none;align=center;verticalAlign=middle;whiteSpace=wrap;rounded=0;fontSize=16;fontColor=#000000;" vertex="1" parent="1">
                    <mxGeometry x="1250" y="35" width="280" height="20" as="geometry"/>
                </mxCell>
                <mxCell id="16" value="App A" style="rounded=0;whiteSpace=wrap;html=1;fontSize=19;fontColor=#000000;fillColor=#F1C232;strokeColor=none;verticalAlign=top;align=left;" vertex="1" parent="1">
                    <mxGeometry x="1160" y="325" width="210" height="115" as="geometry"/>
                </mxCell>
                <mxCell id="17" value="Overlay App A" style="rounded=0;whiteSpace=wrap;html=1;fontSize=19;fontColor=#000000;fillColor=#F1C232;strokeColor=none;verticalAlign=top;" vertex="1" parent="1">
                    <mxGeometry x="1160" y="95" width="210" height="146.25" as="geometry"/>
                </mxCell>
                <mxCell id="18" value="resource overlay&lt;br&gt;App A" style="rounded=0;whiteSpace=wrap;html=1;fillColor=#347BD4;fontSize=19;fontColor=#FFFFFF;strokeColor=none;" vertex="1" parent="1">
                    <mxGeometry x="1200" y="129.37" width="130" height="90" as="geometry"/>
                </mxCell>
                <mxCell id="21" value="App B" style="rounded=0;whiteSpace=wrap;html=1;fontSize=19;fontColor=#000000;fillColor=#F1C232;strokeColor=none;verticalAlign=top;align=left;" vertex="1" parent="1">
                    <mxGeometry x="800" y="310" width="190" height="140" as="geometry"/>
                </mxCell>
                <mxCell id="22" value="Overlay App B" style="rounded=0;whiteSpace=wrap;html=1;fontSize=19;fontColor=#000000;fillColor=#F1C232;strokeColor=none;verticalAlign=top;" vertex="1" parent="1">
                    <mxGeometry x="800" y="100" width="190" height="155" as="geometry"/>
                </mxCell>
                <mxCell id="37" style="edgeStyle=orthogonalEdgeStyle;rounded=0;orthogonalLoop=1;jettySize=auto;html=1;exitX=0.5;exitY=0;exitDx=0;exitDy=0;entryX=0.5;entryY=1;entryDx=0;entryDy=0;strokeColor=#000000;fontSize=16;fontColor=#000000;" edge="1" parent="1" source="23" target="24">
                    <mxGeometry relative="1" as="geometry">
                        <Array as="points">
                            <mxPoint x="893" y="360"/>
                            <mxPoint x="893" y="295"/>
                        </Array>
                    </mxGeometry>
                </mxCell>
                <mxCell id="23" value="Car UI library" style="rounded=0;whiteSpace=wrap;html=1;fontSize=19;fillColor=#347BD4;fontColor=#FFFFFF;strokeColor=none;" vertex="1" parent="1">
                    <mxGeometry x="827.5" y="360" width="135" height="60" as="geometry"/>
                </mxCell>
                <mxCell id="31" style="edgeStyle=orthogonalEdgeStyle;rounded=0;orthogonalLoop=1;jettySize=auto;html=1;exitX=0;exitY=0.5;exitDx=0;exitDy=0;entryX=1;entryY=0.25;entryDx=0;entryDy=0;strokeColor=#000000;fontSize=16;fontColor=#000000;" edge="1" parent="1" source="24" target="3">
                    <mxGeometry relative="1" as="geometry">
                        <Array as="points">
                            <mxPoint x="790" y="185"/>
                            <mxPoint x="790" y="83"/>
                        </Array>
                    </mxGeometry>
                </mxCell>
                <mxCell id="32" style="edgeStyle=orthogonalEdgeStyle;rounded=0;orthogonalLoop=1;jettySize=auto;html=1;entryX=1.004;entryY=0.875;entryDx=0;entryDy=0;entryPerimeter=0;strokeColor=#000000;fontSize=16;fontColor=#000000;" edge="1" parent="1" source="24" target="29">
                    <mxGeometry relative="1" as="geometry">
                        <Array as="points">
                            <mxPoint x="790" y="185"/>
                            <mxPoint x="790" y="276"/>
                        </Array>
                    </mxGeometry>
                </mxCell>
                <mxCell id="24" value="resource overlay&lt;br&gt;App B" style="rounded=0;whiteSpace=wrap;html=1;fillColor=#347BD4;fontSize=19;fontColor=#FFFFFF;strokeColor=none;" vertex="1" parent="1">
                    <mxGeometry x="827.5" y="140" width="130" height="90" as="geometry"/>
                </mxCell>
                <mxCell id="27" style="edgeStyle=orthogonalEdgeStyle;rounded=0;orthogonalLoop=1;jettySize=auto;html=1;exitX=1;exitY=1;exitDx=0;exitDy=0;entryX=0.5;entryY=1;entryDx=0;entryDy=0;strokeColor=#000000;fontSize=16;fontColor=#000000;" edge="1" parent="1" source="4" target="23">
                    <mxGeometry relative="1" as="geometry">
                        <Array as="points">
                            <mxPoint x="895" y="500"/>
                        </Array>
                    </mxGeometry>
                </mxCell>
                <mxCell id="26" style="edgeStyle=orthogonalEdgeStyle;rounded=0;orthogonalLoop=1;jettySize=auto;html=1;exitX=1;exitY=0.75;exitDx=0;exitDy=0;strokeColor=#000000;fontSize=16;fontColor=#000000;" edge="1" parent="1" source="4" target="11">
                    <mxGeometry relative="1" as="geometry"/>
                </mxCell>
                <mxCell id="29" value="Android framework&lt;br&gt;&amp;nbsp;resource" style="rounded=0;whiteSpace=wrap;html=1;fillColor=#347BD4;fontSize=19;strokeColor=none;" vertex="1" parent="1">
                    <mxGeometry x="350" y="180" width="190" height="110" as="geometry"/>
                </mxCell>
                <mxCell id="33" value="App B" style="rounded=0;whiteSpace=wrap;html=1;fontSize=19;fontColor=#000000;fillColor=#F1C232;strokeColor=none;verticalAlign=top;align=left;" vertex="1" parent="1">
                    <mxGeometry x="1420" y="325" width="210" height="115" as="geometry"/>
                </mxCell>
                <mxCell id="34" value="Overlay App B" style="rounded=0;whiteSpace=wrap;html=1;fontSize=19;fontColor=#000000;fillColor=#F1C232;strokeColor=none;verticalAlign=top;" vertex="1" parent="1">
                    <mxGeometry x="1420" y="95" width="210" height="146.25" as="geometry"/>
                </mxCell>
                <mxCell id="35" value="resource overlay&lt;br&gt;App B" style="rounded=0;whiteSpace=wrap;html=1;fillColor=#347BD4;fontSize=19;fontColor=#FFFFFF;strokeColor=none;" vertex="1" parent="1">
                    <mxGeometry x="1460" y="129.37" width="130" height="90" as="geometry"/>
                </mxCell>
                <mxCell id="40" style="edgeStyle=orthogonalEdgeStyle;rounded=0;orthogonalLoop=1;jettySize=auto;html=1;exitX=0.5;exitY=0;exitDx=0;exitDy=0;entryX=0.5;entryY=1;entryDx=0;entryDy=0;strokeColor=#000000;fontSize=16;fontColor=none;" edge="1" parent="1" source="38" target="18">
                    <mxGeometry relative="1" as="geometry"/>
                </mxCell>
                <mxCell id="38" value="resource&amp;nbsp;" style="rounded=0;whiteSpace=wrap;html=1;fillColor=#347BD4;fontSize=19;fontColor=#FFFFFF;strokeColor=none;" vertex="1" parent="1">
                    <mxGeometry x="1200" y="370" width="130" height="50" as="geometry"/>
                </mxCell>
                <mxCell id="41" style="edgeStyle=orthogonalEdgeStyle;rounded=0;orthogonalLoop=1;jettySize=auto;html=1;entryX=0.5;entryY=1;entryDx=0;entryDy=0;strokeColor=#000000;fontSize=16;fontColor=none;" edge="1" parent="1" source="39" target="35">
                    <mxGeometry relative="1" as="geometry"/>
                </mxCell>
                <mxCell id="39" value="resource&amp;nbsp;" style="rounded=0;whiteSpace=wrap;html=1;fillColor=#347BD4;fontSize=19;fontColor=#FFFFFF;strokeColor=none;" vertex="1" parent="1">
                    <mxGeometry x="1460" y="370" width="130" height="50" as="geometry"/>
                </mxCell>
            </root>
        </mxGraphModel>
    </diagram>
</mxfile>